<mxfile host="app.diagrams.net" modified="2024-04-17T08:45:54.843Z" agent="Mozilla/5.0 (Windows NT 10.0; Win64; x64) AppleWebKit/537.36 (KHTML, like Gecko) Chrome/123.0.0.0 Safari/537.36" etag="DZbTqDTD_-YSuUsuQbcS" version="24.2.5" type="device">
  <diagram id="C5RBs43oDa-KdzZeNtuy" name="Page-1">
    <mxGraphModel dx="1621" dy="420" grid="1" gridSize="10" guides="1" tooltips="1" connect="1" arrows="1" fold="1" page="1" pageScale="1" pageWidth="827" pageHeight="1169" math="0" shadow="0">
      <root>
        <mxCell id="WIyWlLk6GJQsqaUBKTNV-0" />
        <mxCell id="WIyWlLk6GJQsqaUBKTNV-1" parent="WIyWlLk6GJQsqaUBKTNV-0" />
        <mxCell id="GMdwDhVzFPaifTt8WV54-0" value="&lt;b&gt;1.0&lt;/b&gt;&lt;div&gt;&lt;b&gt;Sign-in&lt;/b&gt;&lt;/div&gt;" style="ellipse;whiteSpace=wrap;html=1;aspect=fixed;" parent="WIyWlLk6GJQsqaUBKTNV-1" vertex="1">
          <mxGeometry x="320" y="320" width="80" height="80" as="geometry" />
        </mxCell>
        <mxCell id="GMdwDhVzFPaifTt8WV54-1" value="2.0&lt;div&gt;Sign-up&lt;/div&gt;" style="ellipse;whiteSpace=wrap;html=1;aspect=fixed;" parent="WIyWlLk6GJQsqaUBKTNV-1" vertex="1">
          <mxGeometry x="150" y="490" width="80" height="80" as="geometry" />
        </mxCell>
        <mxCell id="GMdwDhVzFPaifTt8WV54-2" value="3.0&lt;div&gt;Buy ticket&lt;/div&gt;" style="ellipse;whiteSpace=wrap;html=1;aspect=fixed;" parent="WIyWlLk6GJQsqaUBKTNV-1" vertex="1">
          <mxGeometry x="230" y="590" width="80" height="80" as="geometry" />
        </mxCell>
        <mxCell id="GMdwDhVzFPaifTt8WV54-3" value="4.0&lt;div&gt;Report Generation&lt;/div&gt;" style="ellipse;whiteSpace=wrap;html=1;aspect=fixed;" parent="WIyWlLk6GJQsqaUBKTNV-1" vertex="1">
          <mxGeometry x="540" y="440" width="80" height="80" as="geometry" />
        </mxCell>
        <mxCell id="GMdwDhVzFPaifTt8WV54-4" value="5.0&lt;div&gt;Sign-out&lt;/div&gt;" style="ellipse;whiteSpace=wrap;html=1;aspect=fixed;" parent="WIyWlLk6GJQsqaUBKTNV-1" vertex="1">
          <mxGeometry x="30" y="460" width="80" height="80" as="geometry" />
        </mxCell>
        <mxCell id="GMdwDhVzFPaifTt8WV54-5" value="Data Flow Diagram" style="rounded=0;whiteSpace=wrap;html=1;fillColor=#ffe6cc;strokeColor=#d79b00;" parent="WIyWlLk6GJQsqaUBKTNV-1" vertex="1">
          <mxGeometry x="220" y="130" width="120" height="60" as="geometry" />
        </mxCell>
        <mxCell id="GMdwDhVzFPaifTt8WV54-22" style="edgeStyle=orthogonalEdgeStyle;rounded=0;orthogonalLoop=1;jettySize=auto;html=1;exitX=0.5;exitY=1;exitDx=0;exitDy=0;entryX=0;entryY=0;entryDx=0;entryDy=0;" parent="WIyWlLk6GJQsqaUBKTNV-1" source="GMdwDhVzFPaifTt8WV54-6" target="GMdwDhVzFPaifTt8WV54-1" edge="1">
          <mxGeometry relative="1" as="geometry">
            <Array as="points">
              <mxPoint x="80" y="400" />
              <mxPoint x="242" y="400" />
            </Array>
          </mxGeometry>
        </mxCell>
        <mxCell id="GMdwDhVzFPaifTt8WV54-38" style="edgeStyle=orthogonalEdgeStyle;rounded=0;orthogonalLoop=1;jettySize=auto;html=1;" parent="WIyWlLk6GJQsqaUBKTNV-1" source="GMdwDhVzFPaifTt8WV54-6" edge="1">
          <mxGeometry relative="1" as="geometry">
            <mxPoint x="370" y="490" as="targetPoint" />
          </mxGeometry>
        </mxCell>
        <mxCell id="GMdwDhVzFPaifTt8WV54-6" value="CLUB_MEMBER" style="rounded=0;whiteSpace=wrap;html=1;" parent="WIyWlLk6GJQsqaUBKTNV-1" vertex="1">
          <mxGeometry y="270" width="140" height="60" as="geometry" />
        </mxCell>
        <mxCell id="GMdwDhVzFPaifTt8WV54-7" value="CLUB_EMPLOYEE" style="rounded=0;whiteSpace=wrap;html=1;" parent="WIyWlLk6GJQsqaUBKTNV-1" vertex="1">
          <mxGeometry x="560" y="270" width="120" height="60" as="geometry" />
        </mxCell>
        <mxCell id="GMdwDhVzFPaifTt8WV54-11" style="edgeStyle=orthogonalEdgeStyle;rounded=0;orthogonalLoop=1;jettySize=auto;html=1;exitX=1;exitY=0.5;exitDx=0;exitDy=0;entryX=0.125;entryY=1;entryDx=0;entryDy=0;entryPerimeter=0;" parent="WIyWlLk6GJQsqaUBKTNV-1" source="GMdwDhVzFPaifTt8WV54-6" target="GMdwDhVzFPaifTt8WV54-0" edge="1">
          <mxGeometry relative="1" as="geometry" />
        </mxCell>
        <mxCell id="GMdwDhVzFPaifTt8WV54-12" style="edgeStyle=orthogonalEdgeStyle;rounded=0;orthogonalLoop=1;jettySize=auto;html=1;exitX=0;exitY=0.5;exitDx=0;exitDy=0;entryX=1;entryY=0.125;entryDx=0;entryDy=0;entryPerimeter=0;" parent="WIyWlLk6GJQsqaUBKTNV-1" source="GMdwDhVzFPaifTt8WV54-7" target="GMdwDhVzFPaifTt8WV54-0" edge="1">
          <mxGeometry relative="1" as="geometry">
            <Array as="points">
              <mxPoint x="487" y="300" />
              <mxPoint x="487" y="360" />
              <mxPoint x="414" y="360" />
            </Array>
          </mxGeometry>
        </mxCell>
        <mxCell id="GMdwDhVzFPaifTt8WV54-13" value="Email id &amp;amp; Password" style="text;html=1;align=center;verticalAlign=middle;resizable=0;points=[];autosize=1;strokeColor=none;fillColor=none;" parent="WIyWlLk6GJQsqaUBKTNV-1" vertex="1">
          <mxGeometry x="430" y="278" width="130" height="30" as="geometry" />
        </mxCell>
        <mxCell id="GMdwDhVzFPaifTt8WV54-15" value="Email id &amp;amp; Passwprd" style="text;html=1;align=center;verticalAlign=middle;resizable=0;points=[];autosize=1;strokeColor=none;fillColor=none;" parent="WIyWlLk6GJQsqaUBKTNV-1" vertex="1">
          <mxGeometry x="130" y="308" width="130" height="30" as="geometry" />
        </mxCell>
        <mxCell id="GMdwDhVzFPaifTt8WV54-17" value="USER_T" style="shape=partialRectangle;whiteSpace=wrap;html=1;left=0;right=0;fillColor=none;" parent="WIyWlLk6GJQsqaUBKTNV-1" vertex="1">
          <mxGeometry x="294" y="218" width="120" height="60" as="geometry" />
        </mxCell>
        <mxCell id="GMdwDhVzFPaifTt8WV54-20" value="" style="endArrow=classic;startArrow=classic;html=1;rounded=0;exitX=0.5;exitY=0;exitDx=0;exitDy=0;" parent="WIyWlLk6GJQsqaUBKTNV-1" source="GMdwDhVzFPaifTt8WV54-0" edge="1">
          <mxGeometry width="50" height="50" relative="1" as="geometry">
            <mxPoint x="310" y="330" as="sourcePoint" />
            <mxPoint x="360" y="280" as="targetPoint" />
          </mxGeometry>
        </mxCell>
        <mxCell id="GMdwDhVzFPaifTt8WV54-24" value="&amp;nbsp; &amp;nbsp; &amp;nbsp; &amp;nbsp; &amp;nbsp; &amp;nbsp; &amp;nbsp; &amp;nbsp; &amp;nbsp; &amp;nbsp; &amp;nbsp; &amp;nbsp; &amp;nbsp; &amp;nbsp; &amp;nbsp; &amp;nbsp; &amp;nbsp; Full name and email id&amp;nbsp;" style="text;html=1;align=center;verticalAlign=middle;resizable=0;points=[];autosize=1;strokeColor=none;fillColor=none;" parent="WIyWlLk6GJQsqaUBKTNV-1" vertex="1">
          <mxGeometry x="-40" y="368" width="260" height="30" as="geometry" />
        </mxCell>
        <mxCell id="GMdwDhVzFPaifTt8WV54-27" style="edgeStyle=orthogonalEdgeStyle;rounded=0;orthogonalLoop=1;jettySize=auto;html=1;exitX=0;exitY=0.75;exitDx=0;exitDy=0;entryX=0.329;entryY=0.008;entryDx=0;entryDy=0;entryPerimeter=0;" parent="WIyWlLk6GJQsqaUBKTNV-1" source="GMdwDhVzFPaifTt8WV54-7" target="GMdwDhVzFPaifTt8WV54-3" edge="1">
          <mxGeometry relative="1" as="geometry" />
        </mxCell>
        <mxCell id="GMdwDhVzFPaifTt8WV54-29" value="&amp;nbsp; &amp;nbsp; &amp;nbsp; &amp;nbsp; &amp;nbsp; &amp;nbsp; &amp;nbsp; &amp;nbsp; &amp;nbsp; &amp;nbsp; &amp;nbsp; &amp;nbsp; &amp;nbsp; &amp;nbsp; &amp;nbsp; &amp;nbsp; &amp;nbsp; &amp;nbsp; &amp;nbsp; &amp;nbsp; &amp;nbsp; &amp;nbsp; Request to generate reports" style="text;html=1;align=center;verticalAlign=middle;resizable=0;points=[];autosize=1;strokeColor=none;fillColor=none;" parent="WIyWlLk6GJQsqaUBKTNV-1" vertex="1">
          <mxGeometry x="390" y="348" width="320" height="30" as="geometry" />
        </mxCell>
        <mxCell id="GMdwDhVzFPaifTt8WV54-31" style="edgeStyle=orthogonalEdgeStyle;rounded=0;orthogonalLoop=1;jettySize=auto;html=1;entryX=0.414;entryY=1.044;entryDx=0;entryDy=0;entryPerimeter=0;" parent="WIyWlLk6GJQsqaUBKTNV-1" source="GMdwDhVzFPaifTt8WV54-3" target="GMdwDhVzFPaifTt8WV54-7" edge="1">
          <mxGeometry relative="1" as="geometry" />
        </mxCell>
        <mxCell id="GMdwDhVzFPaifTt8WV54-33" value="&amp;nbsp; &amp;nbsp; &amp;nbsp; &amp;nbsp; &amp;nbsp; &amp;nbsp; &amp;nbsp; &amp;nbsp; &amp;nbsp; &amp;nbsp; &amp;nbsp; &amp;nbsp; Reports generated" style="text;html=1;align=center;verticalAlign=middle;resizable=0;points=[];autosize=1;strokeColor=none;fillColor=none;" parent="WIyWlLk6GJQsqaUBKTNV-1" vertex="1">
          <mxGeometry x="490" y="398" width="200" height="30" as="geometry" />
        </mxCell>
        <mxCell id="aHzBDR36krNsFvrZUcv5-12" value="" style="edgeStyle=orthogonalEdgeStyle;rounded=0;orthogonalLoop=1;jettySize=auto;html=1;" edge="1" parent="WIyWlLk6GJQsqaUBKTNV-1" source="GMdwDhVzFPaifTt8WV54-34" target="aHzBDR36krNsFvrZUcv5-7">
          <mxGeometry relative="1" as="geometry" />
        </mxCell>
        <mxCell id="GMdwDhVzFPaifTt8WV54-34" value="6.0&lt;div&gt;Recover Password&lt;/div&gt;" style="ellipse;whiteSpace=wrap;html=1;aspect=fixed;" parent="WIyWlLk6GJQsqaUBKTNV-1" vertex="1">
          <mxGeometry x="340" y="490" width="80" height="80" as="geometry" />
        </mxCell>
        <mxCell id="GMdwDhVzFPaifTt8WV54-44" style="edgeStyle=orthogonalEdgeStyle;rounded=0;orthogonalLoop=1;jettySize=auto;html=1;entryX=1.113;entryY=0.483;entryDx=0;entryDy=0;entryPerimeter=0;" parent="WIyWlLk6GJQsqaUBKTNV-1" source="GMdwDhVzFPaifTt8WV54-7" target="GMdwDhVzFPaifTt8WV54-34" edge="1">
          <mxGeometry relative="1" as="geometry" />
        </mxCell>
        <mxCell id="GMdwDhVzFPaifTt8WV54-48" value="&amp;nbsp; &amp;nbsp; &amp;nbsp;Email id" style="text;html=1;align=center;verticalAlign=middle;resizable=0;points=[];autosize=1;strokeColor=none;fillColor=none;" parent="WIyWlLk6GJQsqaUBKTNV-1" vertex="1">
          <mxGeometry x="410" y="448" width="80" height="30" as="geometry" />
        </mxCell>
        <mxCell id="GMdwDhVzFPaifTt8WV54-50" value="&amp;nbsp; &amp;nbsp; Email id" style="text;html=1;align=center;verticalAlign=middle;resizable=0;points=[];autosize=1;strokeColor=none;fillColor=none;" parent="WIyWlLk6GJQsqaUBKTNV-1" vertex="1">
          <mxGeometry x="120" y="278" width="80" height="30" as="geometry" />
        </mxCell>
        <mxCell id="GMdwDhVzFPaifTt8WV54-52" value="" style="endArrow=classic;startArrow=classic;html=1;rounded=0;entryX=0.75;entryY=1;entryDx=0;entryDy=0;" parent="WIyWlLk6GJQsqaUBKTNV-1" target="GMdwDhVzFPaifTt8WV54-17" edge="1">
          <mxGeometry width="50" height="50" relative="1" as="geometry">
            <mxPoint x="390" y="490" as="sourcePoint" />
            <mxPoint x="440" y="440" as="targetPoint" />
          </mxGeometry>
        </mxCell>
        <mxCell id="tLHYrHFUuZJx9oW4tnqB-0" value="" style="curved=1;endArrow=classic;html=1;rounded=0;exitX=0.004;exitY=0.267;exitDx=0;exitDy=0;exitPerimeter=0;entryX=0.131;entryY=1.044;entryDx=0;entryDy=0;entryPerimeter=0;" parent="WIyWlLk6GJQsqaUBKTNV-1" source="GMdwDhVzFPaifTt8WV54-34" target="GMdwDhVzFPaifTt8WV54-15" edge="1">
          <mxGeometry width="50" height="50" relative="1" as="geometry">
            <mxPoint x="280" y="450" as="sourcePoint" />
            <mxPoint x="330" y="400" as="targetPoint" />
            <Array as="points">
              <mxPoint x="330" y="450" />
              <mxPoint x="280" y="400" />
            </Array>
          </mxGeometry>
        </mxCell>
        <mxCell id="tLHYrHFUuZJx9oW4tnqB-1" value="Password or Message" style="text;html=1;align=center;verticalAlign=middle;whiteSpace=wrap;rounded=0;" parent="WIyWlLk6GJQsqaUBKTNV-1" vertex="1">
          <mxGeometry x="294" y="450" width="60" height="30" as="geometry" />
        </mxCell>
        <mxCell id="tLHYrHFUuZJx9oW4tnqB-3" value="" style="curved=1;endArrow=classic;html=1;rounded=0;entryX=0.075;entryY=1.033;entryDx=0;entryDy=0;entryPerimeter=0;" parent="WIyWlLk6GJQsqaUBKTNV-1" target="GMdwDhVzFPaifTt8WV54-17" edge="1" source="aHzBDR36krNsFvrZUcv5-1">
          <mxGeometry width="50" height="50" relative="1" as="geometry">
            <mxPoint x="190" y="480" as="sourcePoint" />
            <mxPoint x="216.83999999999992" y="366" as="targetPoint" />
            <Array as="points">
              <mxPoint x="190" y="430" />
            </Array>
          </mxGeometry>
        </mxCell>
        <mxCell id="aHzBDR36krNsFvrZUcv5-0" value="" style="curved=1;endArrow=classic;html=1;rounded=0;entryX=0.075;entryY=1.033;entryDx=0;entryDy=0;entryPerimeter=0;" edge="1" parent="WIyWlLk6GJQsqaUBKTNV-1" target="aHzBDR36krNsFvrZUcv5-1">
          <mxGeometry width="50" height="50" relative="1" as="geometry">
            <mxPoint x="190" y="480" as="sourcePoint" />
            <mxPoint x="303" y="280" as="targetPoint" />
            <Array as="points">
              <mxPoint x="240" y="480" />
            </Array>
          </mxGeometry>
        </mxCell>
        <mxCell id="aHzBDR36krNsFvrZUcv5-1" value="Member&#39;s profile" style="text;html=1;align=center;verticalAlign=middle;whiteSpace=wrap;rounded=0;" vertex="1" parent="WIyWlLk6GJQsqaUBKTNV-1">
          <mxGeometry x="200" y="435" width="60" height="30" as="geometry" />
        </mxCell>
        <mxCell id="aHzBDR36krNsFvrZUcv5-2" value="" style="curved=1;endArrow=classic;html=1;rounded=0;" edge="1" parent="WIyWlLk6GJQsqaUBKTNV-1">
          <mxGeometry width="50" height="50" relative="1" as="geometry">
            <mxPoint x="280" y="450" as="sourcePoint" />
            <mxPoint x="330" y="400" as="targetPoint" />
            <Array as="points">
              <mxPoint x="330" y="450" />
              <mxPoint x="280" y="400" />
            </Array>
          </mxGeometry>
        </mxCell>
        <mxCell id="aHzBDR36krNsFvrZUcv5-3" value="" style="curved=1;endArrow=classic;html=1;rounded=0;" edge="1" parent="WIyWlLk6GJQsqaUBKTNV-1">
          <mxGeometry width="50" height="50" relative="1" as="geometry">
            <mxPoint x="280" y="450" as="sourcePoint" />
            <mxPoint x="330" y="400" as="targetPoint" />
            <Array as="points">
              <mxPoint x="330" y="450" />
              <mxPoint x="280" y="400" />
            </Array>
          </mxGeometry>
        </mxCell>
        <mxCell id="aHzBDR36krNsFvrZUcv5-4" value="" style="curved=1;endArrow=classic;html=1;rounded=0;exitX=0;exitY=0.875;exitDx=0;exitDy=0;exitPerimeter=0;entryX=1;entryY=1;entryDx=0;entryDy=0;" edge="1" parent="WIyWlLk6GJQsqaUBKTNV-1" source="GMdwDhVzFPaifTt8WV54-1" target="GMdwDhVzFPaifTt8WV54-4">
          <mxGeometry width="50" height="50" relative="1" as="geometry">
            <mxPoint x="60" y="620" as="sourcePoint" />
            <mxPoint x="110" y="570" as="targetPoint" />
            <Array as="points">
              <mxPoint x="110" y="620" />
              <mxPoint x="60" y="570" />
              <mxPoint x="70" y="550" />
            </Array>
          </mxGeometry>
        </mxCell>
        <mxCell id="aHzBDR36krNsFvrZUcv5-5" value="" style="curved=1;endArrow=classic;html=1;rounded=0;exitX=0.404;exitY=1.067;exitDx=0;exitDy=0;exitPerimeter=0;entryX=1;entryY=0.5;entryDx=0;entryDy=0;" edge="1" parent="WIyWlLk6GJQsqaUBKTNV-1" source="aHzBDR36krNsFvrZUcv5-7" target="GMdwDhVzFPaifTt8WV54-4">
          <mxGeometry width="50" height="50" relative="1" as="geometry">
            <mxPoint x="280" y="550" as="sourcePoint" />
            <mxPoint x="330" y="500" as="targetPoint" />
            <Array as="points" />
          </mxGeometry>
        </mxCell>
        <mxCell id="aHzBDR36krNsFvrZUcv5-6" value="" style="curved=1;endArrow=classic;html=1;rounded=0;exitX=0.404;exitY=1.067;exitDx=0;exitDy=0;exitPerimeter=0;entryX=1;entryY=0.5;entryDx=0;entryDy=0;" edge="1" parent="WIyWlLk6GJQsqaUBKTNV-1" source="GMdwDhVzFPaifTt8WV54-0" target="aHzBDR36krNsFvrZUcv5-7">
          <mxGeometry width="50" height="50" relative="1" as="geometry">
            <mxPoint x="352" y="405" as="sourcePoint" />
            <mxPoint x="110" y="500" as="targetPoint" />
            <Array as="points">
              <mxPoint x="330" y="550" />
              <mxPoint x="280" y="500" />
            </Array>
          </mxGeometry>
        </mxCell>
        <mxCell id="aHzBDR36krNsFvrZUcv5-7" value="Thank you message" style="text;html=1;align=center;verticalAlign=middle;whiteSpace=wrap;rounded=0;" vertex="1" parent="WIyWlLk6GJQsqaUBKTNV-1">
          <mxGeometry x="230" y="485" width="60" height="30" as="geometry" />
        </mxCell>
        <mxCell id="aHzBDR36krNsFvrZUcv5-8" value="Message" style="text;html=1;align=center;verticalAlign=middle;whiteSpace=wrap;rounded=0;" vertex="1" parent="WIyWlLk6GJQsqaUBKTNV-1">
          <mxGeometry x="80" y="570" width="60" height="30" as="geometry" />
        </mxCell>
        <mxCell id="aHzBDR36krNsFvrZUcv5-10" value="" style="curved=1;endArrow=classic;html=1;rounded=0;" edge="1" parent="WIyWlLk6GJQsqaUBKTNV-1">
          <mxGeometry width="50" height="50" relative="1" as="geometry">
            <mxPoint x="280" y="550" as="sourcePoint" />
            <mxPoint x="330" y="500" as="targetPoint" />
            <Array as="points">
              <mxPoint x="330" y="550" />
              <mxPoint x="280" y="500" />
            </Array>
          </mxGeometry>
        </mxCell>
        <mxCell id="aHzBDR36krNsFvrZUcv5-13" value="" style="curved=1;endArrow=classic;html=1;rounded=0;exitX=0.5;exitY=1;exitDx=0;exitDy=0;entryX=1.054;entryY=0.425;entryDx=0;entryDy=0;entryPerimeter=0;" edge="1" parent="WIyWlLk6GJQsqaUBKTNV-1" source="GMdwDhVzFPaifTt8WV54-0" target="GMdwDhVzFPaifTt8WV54-2">
          <mxGeometry width="50" height="50" relative="1" as="geometry">
            <mxPoint x="450" y="640" as="sourcePoint" />
            <mxPoint x="500" y="590" as="targetPoint" />
            <Array as="points">
              <mxPoint x="500" y="640" />
              <mxPoint x="450" y="590" />
            </Array>
          </mxGeometry>
        </mxCell>
        <mxCell id="aHzBDR36krNsFvrZUcv5-14" value="Text" style="text;html=1;align=center;verticalAlign=middle;whiteSpace=wrap;rounded=0;" vertex="1" parent="WIyWlLk6GJQsqaUBKTNV-1">
          <mxGeometry x="270" y="510" width="60" height="30" as="geometry" />
        </mxCell>
        <mxCell id="aHzBDR36krNsFvrZUcv5-17" value="Booking details" style="text;html=1;align=center;verticalAlign=middle;whiteSpace=wrap;rounded=0;" vertex="1" parent="WIyWlLk6GJQsqaUBKTNV-1">
          <mxGeometry x="480" y="570" width="60" height="30" as="geometry" />
        </mxCell>
        <mxCell id="aHzBDR36krNsFvrZUcv5-18" value="BOOKING_T" style="shape=partialRectangle;whiteSpace=wrap;html=1;left=0;right=0;fillColor=none;" vertex="1" parent="WIyWlLk6GJQsqaUBKTNV-1">
          <mxGeometry x="400" y="720" width="120" height="60" as="geometry" />
        </mxCell>
        <mxCell id="aHzBDR36krNsFvrZUcv5-20" value="" style="endArrow=classic;html=1;rounded=0;entryX=0.058;entryY=0.044;entryDx=0;entryDy=0;entryPerimeter=0;" edge="1" parent="WIyWlLk6GJQsqaUBKTNV-1" target="aHzBDR36krNsFvrZUcv5-18">
          <mxGeometry width="50" height="50" relative="1" as="geometry">
            <mxPoint x="260" y="670" as="sourcePoint" />
            <mxPoint x="300" y="710" as="targetPoint" />
          </mxGeometry>
        </mxCell>
        <mxCell id="aHzBDR36krNsFvrZUcv5-21" value="Payment details" style="text;html=1;align=center;verticalAlign=middle;whiteSpace=wrap;rounded=0;" vertex="1" parent="WIyWlLk6GJQsqaUBKTNV-1">
          <mxGeometry x="310" y="650" width="60" height="30" as="geometry" />
        </mxCell>
        <mxCell id="aHzBDR36krNsFvrZUcv5-22" value="" style="curved=1;endArrow=classic;html=1;rounded=0;" edge="1" parent="WIyWlLk6GJQsqaUBKTNV-1">
          <mxGeometry width="50" height="50" relative="1" as="geometry">
            <mxPoint x="280" y="450" as="sourcePoint" />
            <mxPoint x="330" y="400" as="targetPoint" />
            <Array as="points">
              <mxPoint x="330" y="450" />
              <mxPoint x="280" y="400" />
            </Array>
          </mxGeometry>
        </mxCell>
        <mxCell id="aHzBDR36krNsFvrZUcv5-23" value="" style="curved=1;endArrow=classic;html=1;rounded=0;exitX=0.75;exitY=1;exitDx=0;exitDy=0;entryX=0.013;entryY=0.367;entryDx=0;entryDy=0;entryPerimeter=0;" edge="1" parent="WIyWlLk6GJQsqaUBKTNV-1" source="GMdwDhVzFPaifTt8WV54-17" target="GMdwDhVzFPaifTt8WV54-3">
          <mxGeometry width="50" height="50" relative="1" as="geometry">
            <mxPoint x="440" y="260" as="sourcePoint" />
            <mxPoint x="490" y="210" as="targetPoint" />
            <Array as="points">
              <mxPoint x="490" y="260" />
              <mxPoint x="440" y="210" />
            </Array>
          </mxGeometry>
        </mxCell>
        <mxCell id="aHzBDR36krNsFvrZUcv5-24" value="" style="curved=1;endArrow=classic;html=1;rounded=0;entryX=0.354;entryY=0.958;entryDx=0;entryDy=0;entryPerimeter=0;exitX=1.014;exitY=-0.144;exitDx=0;exitDy=0;exitPerimeter=0;" edge="1" parent="WIyWlLk6GJQsqaUBKTNV-1" source="aHzBDR36krNsFvrZUcv5-18" target="GMdwDhVzFPaifTt8WV54-3">
          <mxGeometry width="50" height="50" relative="1" as="geometry">
            <mxPoint x="510" y="690" as="sourcePoint" />
            <mxPoint x="560" y="640" as="targetPoint" />
            <Array as="points">
              <mxPoint x="560" y="690" />
              <mxPoint x="510" y="640" />
            </Array>
          </mxGeometry>
        </mxCell>
        <mxCell id="aHzBDR36krNsFvrZUcv5-25" value="Booking details" style="text;html=1;align=center;verticalAlign=middle;whiteSpace=wrap;rounded=0;" vertex="1" parent="WIyWlLk6GJQsqaUBKTNV-1">
          <mxGeometry x="550" y="615" width="60" height="30" as="geometry" />
        </mxCell>
        <mxCell id="aHzBDR36krNsFvrZUcv5-28" value="User details" style="text;html=1;align=center;verticalAlign=middle;whiteSpace=wrap;rounded=0;" vertex="1" parent="WIyWlLk6GJQsqaUBKTNV-1">
          <mxGeometry x="460" y="398" width="60" height="30" as="geometry" />
        </mxCell>
      </root>
    </mxGraphModel>
  </diagram>
</mxfile>
